<?xml version="1.0" standalone="no"?>
<!DOCTYPE svg PUBLIC "-//W3C//DTD SVG 20010904//EN"
 "http://www.w3.org/TR/2001/REC-SVG-20010904/DTD/svg10.dtd">
<svg version="1.0" xmlns="http://www.w3.org/2000/svg"
 width="400.000000pt" height="400.000000pt" viewBox="0 0 400.000000 400.000000"
 preserveAspectRatio="xMidYMid meet">
<metadata>
Created by potrace 1.11, written by Peter Selinger 2001-2013
</metadata>
<g transform="translate(0.000000,400.000000) scale(0.100000,-0.100000)"
fill="#000000" stroke="none">
<path d="M0 2000 l0 -2000 2000 0 2000 0 0 2000 0 2000 -2000 0 -2000 0 0
-2000z m1542 741 c100 -26 184 -69 290 -149 l88 -66 -27 -35 c-15 -20 -51 -67
-81 -104 l-53 -68 -66 52 c-80 63 -139 94 -218 114 -252 64 -503 -84 -582
-344 -35 -117 -4 -286 73 -399 164 -237 525 -278 714 -81 54 56 145 229 194
366 78 222 242 463 401 588 132 105 242 145 396 145 335 0 631 -234 714 -565
24 -93 24 -267 1 -354 -125 -466 -626 -699 -1051 -489 -63 31 -224 147 -225
161 0 12 143 196 153 197 5 0 44 -27 87 -59 167 -125 334 -149 510 -71 201 89
320 316 276 526 -39 190 -176 335 -357 379 -180 44 -334 -23 -472 -208 -67
-89 -124 -189 -165 -287 -17 -41 -50 -120 -72 -175 -66 -159 -124 -250 -219
-346 -138 -138 -274 -191 -486 -192 -132 -1 -216 18 -330 75 -260 128 -415
376 -415 663 0 229 85 415 260 569 73 65 213 138 305 160 90 22 266 20 357 -3z"/>
</g>
</svg>
